<svg xmlns="http://www.w3.org/2000/svg" viewBox="0 0 428.68 79.88"><defs><style>.cls-1{stroke:#fff;stroke-miterlimit:10;}</style></defs><title>Artboard 4</title><g id="Layer_3" data-name="Layer 3"><polygon class="cls-1" points="0.5 34.38 0.5 78.17 44.29 78.17 44.29 34.38 22.39 56.28 0.5 34.38"/><polygon class="cls-1" points="302.55 78.17 302.55 34.38 258.76 34.38 258.76 78.17 280.66 56.28 302.55 78.17"/><polygon class="cls-1" points="403.55 34.38 359.76 34.38 359.76 78.17 403.55 78.17 381.66 56.28 403.55 34.38"/><polygon class="cls-1" points="47.03 78.17 68.92 34.38 90.82 78.17 47.03 78.17"/><polygon class="cls-1" points="93.55 34.38 93.55 78.17 137.34 78.17 93.55 34.38"/><rect class="cls-1" x="140.08" y="34.38" width="21.89" height="43.79"/><rect class="cls-1" x="406.29" y="34.38" width="21.89" height="43.79"/><polygon class="cls-1" points="165.71 78.17 165.71 34.38 187.61 42.59 187.61 34.38 209.5 34.38 209.5 78.17 187.61 69.96 187.61 78.17 165.71 78.17"/><path class="cls-1" d="M336.13,35.59a21.9,21.9,0,0,0-21.89,21.9H303.29a21.9,21.9,0,0,0,43.79,0H358A21.91,21.91,0,0,0,336.13,35.59Z"/><path class="cls-1" d="M234.13,53.54a2.74,2.74,0,1,0,2.74,2.74A2.74,2.74,0,0,0,234.13,53.54Z"/><path class="cls-1" d="M234.13,53.54a2.74,2.74,0,1,0,2.74,2.74A2.74,2.74,0,0,0,234.13,53.54Z"/><path class="cls-1" d="M234.13,34.38A21.9,21.9,0,1,0,256,56.28,21.9,21.9,0,0,0,234.13,34.38Z"/><path d="M73.19,9.41a3.57,3.57,0,0,1,2.35.86,2.74,2.74,0,0,1,.87,2.13,4.7,4.7,0,0,1-.67,2.35,6.1,6.1,0,0,1-1.68,1.94,3.48,3.48,0,0,1-2,.76c-.4,0-.6-.15-.6-.43a2.2,2.2,0,0,1,.23-.68,5.73,5.73,0,0,0,.76-2.95c0-.56-.07-.83-.2-.83s-.44.23-.77.69a7.12,7.12,0,0,0-.86,1.65,22.89,22.89,0,0,0-1,3.19,13,13,0,0,0-.4,2.85,4.6,4.6,0,0,0,.4,2.08,1.23,1.23,0,0,0,1.12.75,3.58,3.58,0,0,0,1.76-.7,11.16,11.16,0,0,0,2.1-1.72c.27-.35.51-.53.72-.53s.46.18.46.53a6.13,6.13,0,0,1-1.86,4.33,10.32,10.32,0,0,1-2.94,2.06,7,7,0,0,1-3,.79,5.36,5.36,0,0,1-3.84-1.46,4.84,4.84,0,0,1-1.53-3.67,12.29,12.29,0,0,1,1-4.64,19.11,19.11,0,0,1,2.67-4.63,17.15,17.15,0,0,1,3.86-3.67,5.38,5.38,0,0,1,3-1.05Z"/><path d="M84.23,22.22l-.08.39a6.76,6.76,0,0,1-.08.95,11.45,11.45,0,0,1-.21,1.55,2.87,2.87,0,0,1-.41,1,5.28,5.28,0,0,1-.73.85,4.3,4.3,0,0,1-2.86,1.3,1.9,1.9,0,0,1-1.71-.86,5.21,5.21,0,0,1-.56-2.75,26.41,26.41,0,0,1,.34-3.74,34.76,34.76,0,0,1,.83-4l.15-.5a2.11,2.11,0,0,1,.12-.49A25.73,25.73,0,0,1,80.35,12a6.38,6.38,0,0,1,1.45-2,2.66,2.66,0,0,1,1.71-.61c.92,0,1.48.56,1.67,1.67a3.35,3.35,0,0,0,.52-.54,5.77,5.77,0,0,1,.88-.9,1.17,1.17,0,0,1,.72-.23c1.11,0,1.67,1.1,1.67,3.3a15.52,15.52,0,0,1-.39,3.5,10.89,10.89,0,0,1-1,2.75c-.4.71-.79,1.07-1.18,1.07s-.64-.81-.64-2.43a11.61,11.61,0,0,0-.14-2,2.75,2.75,0,0,0-.46-1.13c-.39.72-.64,2.38-.76,5C84.33,20.89,84.27,21.83,84.23,22.22Z"/><path d="M97.07,22.73a1.35,1.35,0,0,0,1.52,1.16,7.1,7.1,0,0,0,3.78-1.71,4.49,4.49,0,0,1,1.82-1,2.12,2.12,0,0,1,1.09.31c.34.21.51.42.51.64s-.19.54-.57.92a20.11,20.11,0,0,1-2.36,2,19.83,19.83,0,0,1-2.59,1.63,13.44,13.44,0,0,1-2.48,1,7.82,7.82,0,0,1-2.21.38,5.36,5.36,0,0,1-3.88-1.39A4.85,4.85,0,0,1,90.24,23,12.42,12.42,0,0,1,91,19a18.12,18.12,0,0,1,2.06-4.16,14,14,0,0,1,3.77-3.79,9.68,9.68,0,0,1,5.28-1.82A3.65,3.65,0,0,1,105,10.41a4.59,4.59,0,0,1,1,3.17,7.51,7.51,0,0,1-.83,3.28,11.71,11.71,0,0,1-2.43,3.28,12.75,12.75,0,0,1-2.59,2.06,4.63,4.63,0,0,1-2.22.74A2.06,2.06,0,0,1,97.07,22.73Zm0-.63a5.71,5.71,0,0,0,1.36-1.2A9.12,9.12,0,0,0,100,18a12,12,0,0,0,.7-2.39,13,13,0,0,0,.25-2.46c0-.71-.14-1.07-.44-1.07s-1,.91-1.9,2.74a23.21,23.21,0,0,0-1.24,3.29,10.58,10.58,0,0,0-.47,2.82A6.4,6.4,0,0,0,97,22.1Z"/><path d="M120.39,22.49v.08l-.07-.08A38.11,38.11,0,0,1,117,26a14.22,14.22,0,0,1-2.78,2,4.9,4.9,0,0,1-2.34.68,4.82,4.82,0,0,1-3.59-1.45,5.09,5.09,0,0,1-1.41-3.69,9.53,9.53,0,0,1,.7-3.26,17.13,17.13,0,0,1,1.92-3.69,18.9,18.9,0,0,1,5.12-5,11.14,11.14,0,0,1,6.13-2.12,7.49,7.49,0,0,1,4.09,1,3,3,0,0,1,1.6,2.57,4.66,4.66,0,0,1-.8,2.43,2.42,2.42,0,0,1,1.32.22,1.39,1.39,0,0,1,.28,1,7,7,0,0,0-.1.79c-.08,1.29-.12,2.48-.12,3.59,0,.59,0,1,0,1.32s0,.64.08,1,.08.7.12.93a9.21,9.21,0,0,0,.5,1.81,9.36,9.36,0,0,1-2.23,1.68,4.9,4.9,0,0,1-2.18.53q-3,0-3-5C120.36,23,120.37,22.71,120.39,22.49Zm1.17-4.44-.37.11a8.57,8.57,0,0,1-2,.39q-.75,0-.75-.39a2.45,2.45,0,0,1,.31-.71,5.75,5.75,0,0,0,1.08-3.11,3.78,3.78,0,0,0-.29-1.52c-.19-.46-.41-.69-.64-.69s-.52.22-.95.66a18.41,18.41,0,0,0-2.86,4A8.13,8.13,0,0,0,114,20.47a3.29,3.29,0,0,0,.44,1.77,1.26,1.26,0,0,0,1.09.7,4.87,4.87,0,0,0,2.11-1.2,35.71,35.71,0,0,0,3.46-3.19l.53-.42Z"/><path d="M133.44,9.37l.08-.23a27.36,27.36,0,0,1,2.22-5.08A4.33,4.33,0,0,1,137,2.81a5.36,5.36,0,0,1,2.82-.95,1.79,1.79,0,0,1,1.18.35,1.27,1.27,0,0,1,.41,1,6.33,6.33,0,0,1-.59,1.83,27.35,27.35,0,0,0-1.48,4.28c.22,0,.43.07.64.12a4.94,4.94,0,0,1,1.54.4.88.88,0,0,1,.37.8,3.67,3.67,0,0,1-.53,1.91A3.24,3.24,0,0,1,140,13.84a6.75,6.75,0,0,1-2.08.39c-.17.5-.35,1.19-.56,2.07s-.24,1.85-.38,3.23a9,9,0,0,0-.12,1.41c0,2,1,3.07,3,3.07H140c.23,0,.35,0,.35.11s-.22.56-.66,1.05a8.55,8.55,0,0,1-1.46,1.3,7.71,7.71,0,0,1-1.86.93,5.54,5.54,0,0,1-1.83.35,4.32,4.32,0,0,1-3.32-1.38,5.17,5.17,0,0,1-1.27-3.64,12.44,12.44,0,0,1,.34-2.55c.23-1,.58-2.45,1.06-4.21.08-.31.16-.64.25-1l.16-.61a1.63,1.63,0,0,1-1.11-.33,1.33,1.33,0,0,1-.33-1,3.49,3.49,0,0,1,.94-2.31A4,4,0,0,1,133.44,9.37Z"/><path d="M149.05,22.73a1.35,1.35,0,0,0,1.51,1.16,7.16,7.16,0,0,0,3.79-1.71,4.43,4.43,0,0,1,1.82-1,2.12,2.12,0,0,1,1.09.31c.33.21.5.42.5.64a1.56,1.56,0,0,1-.56.92,20.25,20.25,0,0,1-2.37,2,19.11,19.11,0,0,1-2.58,1.63,14,14,0,0,1-2.48,1,7.83,7.83,0,0,1-2.22.38,5.38,5.38,0,0,1-3.88-1.39A4.84,4.84,0,0,1,142.22,23a12.38,12.38,0,0,1,.76-4,18.16,18.16,0,0,1,2.07-4.16,13.88,13.88,0,0,1,3.77-3.79,9.62,9.62,0,0,1,5.27-1.82A3.66,3.66,0,0,1,157,10.41a4.59,4.59,0,0,1,1,3.17,7.51,7.51,0,0,1-.83,3.28,11.56,11.56,0,0,1-2.44,3.28,12.48,12.48,0,0,1-2.59,2.06,4.57,4.57,0,0,1-2.22.74A2.05,2.05,0,0,1,149.05,22.73Zm0-.63a5.71,5.71,0,0,0,1.36-1.2A9.53,9.53,0,0,0,152,18a12,12,0,0,0,.7-2.39,13,13,0,0,0,.25-2.46c0-.71-.15-1.07-.45-1.07s-1,.91-1.9,2.74a24.42,24.42,0,0,0-1.23,3.29,10.19,10.19,0,0,0-.47,2.82A6.4,6.4,0,0,0,149,22.1Z"/><path d="M172,10.38l.2-.79c.4-1.78.76-3.21,1.08-4.3a23.24,23.24,0,0,1,1-2.78,5.68,5.68,0,0,1,1-1.64A3.93,3.93,0,0,1,178.25,0a6.8,6.8,0,0,1,1.39.1,1.47,1.47,0,0,1,.73.35c-.62,1.92-1.05,3.37-1.29,4.33s-.51,2.29-.79,4a47.43,47.43,0,0,0-.66,7.44,30.25,30.25,0,0,0,.36,4.55A44.85,44.85,0,0,0,179.16,26a21.25,21.25,0,0,1-2,1.22,12.2,12.2,0,0,1-1.78.79,4.48,4.48,0,0,1-1.49.29,1.61,1.61,0,0,1-1.59-1.1,8.48,8.48,0,0,1-.5-1.47c-.08-.37-.22-1.39-.41-3.07a29.12,29.12,0,0,1-5,4.28,7.69,7.69,0,0,1-3.79,1.56A3.22,3.22,0,0,1,160,27.16a5.43,5.43,0,0,1-1-3.43,12.75,12.75,0,0,1,.81-4.18A19.68,19.68,0,0,1,162,15.1a14.91,14.91,0,0,1,1.91-2.4,14.33,14.33,0,0,1,2.22-1.81,7.34,7.34,0,0,1,3.77-1.48A4.52,4.52,0,0,1,172,10.38Zm-.6,9.22V18.48a2.85,2.85,0,0,1-1.47.87c-.19,0-.28-.09-.28-.27a2.11,2.11,0,0,1,.12-.49,6.79,6.79,0,0,0,.41-2.25,8.78,8.78,0,0,0-.68-3.26q-.3-.87-.72-.87a.41.41,0,0,0-.35.19,8.05,8.05,0,0,0-1.22,2.09,17.35,17.35,0,0,0-1,2.93,12.33,12.33,0,0,0-.38,2.8c0,1.54.47,2.31,1.4,2.31a3.65,3.65,0,0,0,1.87-.82A12.28,12.28,0,0,0,171.42,19.6Z"/><path d="M203.18,19.87a2.44,2.44,0,0,1-.68.16,1.43,1.43,0,0,1-1.12-.51,1.87,1.87,0,0,1-.43-1.28,10.36,10.36,0,0,1,1.08-4,11.89,11.89,0,0,1,2.29-3.59,2.76,2.76,0,0,1,2-.87,2.13,2.13,0,0,1,1.48.57,3.66,3.66,0,0,1,.95,1.65,8.65,8.65,0,0,1,.33,2.52,15.49,15.49,0,0,1-1.51,6.77,13.3,13.3,0,0,1-4,5,8.86,8.86,0,0,1-5.41,1.89,5.91,5.91,0,0,1-3.28-.9,5.75,5.75,0,0,1-2.17-2.57,9.28,9.28,0,0,1-.76-3.89,18.9,18.9,0,0,1,.67-4.7,33.47,33.47,0,0,1,1.91-5.32,36.84,36.84,0,0,1,2.91-5.27,14.71,14.71,0,0,1,4.09-4.33A5.7,5.7,0,0,1,204.81.16a3.82,3.82,0,0,1,2.85,1.08,4,4,0,0,1,1.07,2.89,4.77,4.77,0,0,1-1,2.69,8.14,8.14,0,0,1-2.46,2.32,5.53,5.53,0,0,1-2.91.91c-.45,0-.68-.11-.68-.35a2.25,2.25,0,0,1,.57-1A11.32,11.32,0,0,0,203.84,6a7,7,0,0,0,.64-2.65c0-.69-.1-1-.31-1s-.66.43-1.2,1.28a16.33,16.33,0,0,0-1.46,2.93,57.46,57.46,0,0,0-2.33,7.52,28.07,28.07,0,0,0-.81,6.06,7.36,7.36,0,0,0,.61,3.18c.41.86.9,1.29,1.48,1.29a2.16,2.16,0,0,0,1.85-1.25A7.91,7.91,0,0,0,203.18,19.87Z"/><path d="M222.91,14.83l.25-.84a6.64,6.64,0,0,1,1.53-3,5.67,5.67,0,0,1,1.52-1.08,3.47,3.47,0,0,1,1.55-.43c.86,0,1.28.36,1.28,1.09a6.32,6.32,0,0,1-.35,1.69c-.23.76-.54,1.62-.92,2.59s-.83,2-1.34,3.17-1.08,2.33-1.7,3.55a38.72,38.72,0,0,1-3.42,5.84,28.5,28.5,0,0,1-2.52,3,22.83,22.83,0,0,1-2.69,2.37,13.5,13.5,0,0,1-2.66,1.58,6.07,6.07,0,0,1-2.31.53q-.87,0-.87-.75a4.78,4.78,0,0,1,.27-1.44,6.51,6.51,0,0,1,.76-1.57,5.41,5.41,0,0,1,1.32-1.24,19.91,19.91,0,0,1,3-1.6c-.78-1.3-1.37-2.34-1.77-3.1s-.85-1.72-1.33-2.85a18,18,0,0,1-1.59-6.87,10.57,10.57,0,0,1,.58-3.83A3.17,3.17,0,0,1,213.4,9.9a5.55,5.55,0,0,1,2-.45,1.69,1.69,0,0,1,1.7,1,17.93,17.93,0,0,1,.77,4.49A64.24,64.24,0,0,0,219,22.38c.09.37.19.89.31,1.55h.08c.35-.76.73-1.69,1.15-2.78.12-.31.58-1.45,1.36-3.43C222.36,16.53,222.69,15.56,222.91,14.83Z"/></g></svg>