<?xml version="1.0" encoding="utf-8"?>
<!-- Generator: Adobe Illustrator 14.0.0, SVG Export Plug-In . SVG Version: 6.00 Build 43363)  -->
<!DOCTYPE svg PUBLIC "-//W3C//DTD SVG 1.1//EN" "http://www.w3.org/Graphics/SVG/1.1/DTD/svg11.dtd">
<svg version="1.1" id="Layer_1" xmlns="http://www.w3.org/2000/svg" xmlns:xlink="http://www.w3.org/1999/xlink" x="0px" y="0px"
	 width="595.28px" height="841.89px" viewBox="0 0 595.28 841.89" enable-background="new 0 0 595.28 841.89" xml:space="preserve">
<g>
	<path fill="#FEFEFE" d="M296.147,424.097l1.482,1.834c0.537-0.75,0.813-1.672,0.827-2.762c0-1.246-0.304-2.259-0.912-3.035
		c-0.608-0.776-1.448-1.164-2.52-1.164c-1.056,0-1.9,0.392-2.532,1.176c-0.632,0.784-0.956,1.768-0.972,2.953
		c0,1.248,0.304,2.26,0.912,3.035s1.448,1.164,2.52,1.164c0.468,0,0.895-0.076,1.28-0.23l-1.485-1.84L296.147,424.097
		L296.147,424.097z M299.073,427.718l1.736,2.15l-1.582,0.906l-1.648-2.041c-0.781,0.355-1.664,0.533-2.65,0.533
		c-1.168,0-2.188-0.256-3.06-0.77c-0.872-0.512-1.54-1.23-2.004-2.16c-0.464-0.928-0.696-2-0.696-3.215
		c0-1.199,0.24-2.264,0.72-3.192c0.479-0.928,1.16-1.648,2.04-2.16c0.88-0.512,1.912-0.768,3.096-0.768
		c1.168,0,2.188,0.256,3.06,0.768c0.872,0.512,1.544,1.232,2.016,2.16c0.473,0.928,0.709,2.001,0.709,3.216
		c0,1.201-0.24,2.264-0.721,3.191C299.816,426.867,299.477,427.326,299.073,427.718L299.073,427.718z M359.057,414.026l-2.305,0.528
		v2.904h-1.656l0.024,1.751h1.632v6.504c0,1.168,0.332,2.068,0.996,2.699c0.664,0.633,1.572,0.949,2.724,0.949
		c0.32,0,0.669-0.053,1.044-0.156c0.377-0.104,0.685-0.221,0.925-0.348l-0.601-1.752c-0.464,0.176-0.84,0.264-1.128,0.264
		c-0.56,0-0.976-0.18-1.248-0.541c-0.271-0.359-0.407-0.852-0.407-1.475v-6.145h2.832l-0.721-1.751h-2.111V414.026L359.057,414.026z
		 M345.809,422.089c0.111-0.975,0.428-1.739,0.947-2.291c0.521-0.552,1.221-0.828,2.101-0.828c1.647,0,2.624,1.04,2.928,3.119
		H345.809L345.809,422.089z M354.017,423.027c0-1.761-0.429-3.205-1.284-4.333c-0.856-1.128-2.124-1.692-3.804-1.692
		c-1.137,0-2.124,0.256-2.965,0.768c-0.84,0.512-1.483,1.232-1.932,2.16s-0.672,1.993-0.672,3.192c0,1.871,0.544,3.359,1.632,4.463
		c1.088,1.105,2.648,1.656,4.68,1.656c1.408,0,2.816-0.424,4.225-1.271l-0.721-1.68c-0.815,0.385-1.452,0.652-1.907,0.803
		c-0.456,0.152-0.988,0.229-1.597,0.229c-1.248,0-2.188-0.328-2.819-0.984c-0.633-0.654-0.996-1.551-1.093-2.688h8.257V423.027
		L354.017,423.027z M338.777,414.026l-2.304,0.528v2.904h-1.656l0.024,1.751h1.632v6.504c0,1.168,0.332,2.068,0.996,2.699
		c0.663,0.633,1.571,0.949,2.724,0.949c0.319,0,0.668-0.053,1.044-0.156s0.684-0.221,0.924-0.348l-0.6-1.752
		c-0.464,0.176-0.84,0.264-1.128,0.264c-0.561,0-0.977-0.18-1.248-0.541c-0.272-0.359-0.408-0.852-0.408-1.475v-6.145h2.832
		l-0.72-1.751h-2.112V414.026L338.777,414.026z M330.088,421.25c0.608-0.576,1.297-1.068,2.064-1.476
		c0.769-0.408,1.456-0.612,2.064-0.612l-0.504-1.848c-0.561,0-1.213,0.2-1.957,0.6c-0.743,0.4-1.388,0.832-1.932,1.296l-0.744-1.896
		h-1.296v11.64h2.304V421.25L330.088,421.25z M317.705,425.595c0-0.576,0.192-1.064,0.576-1.465s0.912-0.6,1.584-0.6h2.832v2.352
		c-0.416,0.465-0.888,0.836-1.416,1.115c-0.528,0.281-1.072,0.42-1.632,0.42c-0.624,0-1.104-0.18-1.44-0.539
		S317.705,426.089,317.705,425.595L317.705,425.595z M316.985,419.858c1.184-0.528,2.304-0.792,3.359-0.792
		c0.864,0,1.469,0.252,1.813,0.756s0.516,1.228,0.516,2.171h-2.76c-1.296,0-2.332,0.316-3.107,0.949
		c-0.776,0.631-1.164,1.516-1.164,2.652c0,1.104,0.344,1.986,1.031,2.65c0.688,0.664,1.696,0.996,3.024,0.996
		c0.592,0,1.2-0.135,1.824-0.408c0.624-0.271,1.151-0.6,1.584-0.982l0.288,1.104H325v-7.896c0-0.736-0.204-1.417-0.611-2.041
		c-0.408-0.624-0.973-1.116-1.692-1.476c-0.72-0.36-1.521-0.54-2.4-0.54c-0.544,0-1.235,0.1-2.075,0.3
		c-0.84,0.2-1.469,0.444-1.885,0.732L316.985,419.858L316.985,419.858z M310.769,425.523c-0.624,0.543-1.257,0.986-1.896,1.332
		c-0.64,0.344-1.231,0.516-1.775,0.516c-0.721,0-1.221-0.221-1.501-0.66c-0.279-0.439-0.42-1.084-0.42-1.932v-7.464h-2.304v7.679
		c0,1.328,0.309,2.385,0.924,3.168c0.616,0.785,1.557,1.178,2.82,1.178c0.769,0,1.544-0.182,2.328-0.541s1.487-0.82,2.112-1.381
		l0.407,1.537h1.608v-11.64h-2.304V425.523L310.769,425.523z M274.289,425.595c0-0.576,0.192-1.064,0.576-1.465
		c0.384-0.4,0.912-0.6,1.584-0.6h2.832v2.352c-0.416,0.465-0.888,0.836-1.416,1.115c-0.528,0.281-1.072,0.42-1.632,0.42
		c-0.624,0-1.104-0.18-1.44-0.539S274.289,426.089,274.289,425.595L274.289,425.595z M273.568,419.858
		c1.184-0.528,2.304-0.792,3.36-0.792c0.864,0,1.468,0.252,1.812,0.756c0.344,0.504,0.516,1.228,0.516,2.171h-2.76
		c-1.296,0-2.332,0.316-3.108,0.949c-0.776,0.631-1.165,1.516-1.165,2.652c0,1.104,0.344,1.986,1.032,2.65s1.696,0.996,3.024,0.996
		c0.592,0,1.2-0.135,1.824-0.408c0.624-0.271,1.152-0.6,1.584-0.982l0.288,1.104h1.608v-7.896c0-0.736-0.204-1.417-0.612-2.041
		c-0.408-0.624-0.972-1.116-1.692-1.476c-0.72-0.36-1.52-0.54-2.4-0.54c-0.544,0-1.236,0.1-2.076,0.3
		c-0.84,0.2-1.468,0.444-1.884,0.732L273.568,419.858L273.568,419.858z M266.104,416.93c1.216,0,2.128,0.396,2.736,1.188
		s0.912,1.844,0.912,3.156v7.68h-2.304v-7.465c0-0.832-0.14-1.471-0.42-1.919s-0.748-0.672-1.404-0.672
		c-0.464,0-0.992,0.156-1.584,0.468c-0.592,0.312-1.184,0.724-1.776,1.236c0.016,0.144,0.024,0.368,0.024,0.672v7.68h-2.304v-7.465
		c0-0.832-0.14-1.471-0.42-1.919c-0.28-0.448-0.748-0.672-1.404-0.672c-0.496,0-1.052,0.172-1.668,0.516
		c-0.616,0.344-1.236,0.788-1.86,1.332v8.208h-2.304v-11.64h1.608l0.408,1.536c0.608-0.56,1.3-1.02,2.076-1.38
		c0.776-0.36,1.516-0.54,2.22-0.54c0.768,0,1.42,0.168,1.956,0.504c0.536,0.335,0.94,0.808,1.212,1.416
		c0.608-0.56,1.3-1.02,2.076-1.38C264.661,417.11,265.4,416.93,266.104,416.93L266.104,416.93z M247.024,414.026l-2.304,0.528v2.904
		h-1.656l0.024,1.751h1.632v6.504c0,1.168,0.332,2.068,0.996,2.699c0.664,0.633,1.572,0.949,2.724,0.949
		c0.32,0,0.668-0.053,1.044-0.156s0.684-0.221,0.924-0.348l-0.6-1.752c-0.463,0.176-0.84,0.264-1.128,0.264
		c-0.56,0-0.976-0.18-1.248-0.541c-0.271-0.359-0.408-0.852-0.408-1.475v-6.145h2.832l-0.72-1.751h-2.112V414.026L247.024,414.026z
		 M238.768,411.986c-0.016,0.272-0.1,0.488-0.252,0.648c-0.152,0.16-0.332,0.24-0.54,0.24c-0.208,0-0.388-0.036-0.54-0.108
		c-0.152-0.072-0.348-0.18-0.588-0.324c-0.271-0.176-0.516-0.313-0.732-0.408c-0.216-0.096-0.492-0.144-0.828-0.144
		c-0.688,0-1.24,0.196-1.656,0.588s-0.624,1.036-0.624,1.932h1.56c0.016-0.24,0.108-0.448,0.276-0.624
		c0.168-0.176,0.348-0.264,0.54-0.264c0.208,0,0.392,0.036,0.552,0.108c0.16,0.072,0.344,0.188,0.552,0.348
		c0.272,0.176,0.512,0.312,0.72,0.408c0.208,0.096,0.472,0.144,0.792,0.144c0.672,0,1.22-0.2,1.644-0.6
		c0.424-0.4,0.636-1.048,0.636-1.944H238.768L238.768,411.986z M234.064,425.595c0-0.576,0.192-1.064,0.576-1.465
		c0.384-0.4,0.912-0.6,1.584-0.6h2.832v2.352c-0.416,0.465-0.888,0.836-1.416,1.115c-0.528,0.281-1.072,0.42-1.632,0.42
		c-0.624,0-1.104-0.18-1.44-0.539C234.232,426.519,234.064,426.089,234.064,425.595L234.064,425.595z M233.344,419.858
		c1.184-0.528,2.304-0.792,3.36-0.792c0.864,0,1.468,0.252,1.812,0.756c0.344,0.504,0.516,1.228,0.516,2.171h-2.76
		c-1.296,0-2.332,0.316-3.108,0.949c-0.776,0.631-1.165,1.516-1.165,2.652c0,1.104,0.344,1.986,1.032,2.65s1.696,0.996,3.024,0.996
		c0.592,0,1.2-0.135,1.824-0.408c0.624-0.271,1.152-0.6,1.584-0.982l0.288,1.104h1.608v-7.896c0-0.736-0.204-1.417-0.612-2.041
		c-0.408-0.624-0.972-1.116-1.692-1.476c-0.72-0.36-1.52-0.54-2.4-0.54c-0.544,0-1.236,0.1-2.076,0.3
		c-0.84,0.2-1.468,0.444-1.884,0.732L233.344,419.858L233.344,419.858z"/>
</g>
</svg>
