<svg xmlns="http://www.w3.org/2000/svg" width="277.261" height="40.141" viewBox="0 0 277.261 40.141"><g transform="translate(-231.999 -411.89)"><path d="M368.349,437.834l3.15,3.9a10.052,10.052,0,0,0,1.758-5.869,10.161,10.161,0,0,0-1.939-6.453,6.427,6.427,0,0,0-5.356-2.474,6.56,6.56,0,0,0-5.382,2.5,9.9,9.9,0,0,0-2.066,6.275,10.161,10.161,0,0,0,1.939,6.453,6.433,6.433,0,0,0,5.356,2.474,7.267,7.267,0,0,0,2.721-.491l-3.156-3.911,2.976-2.4Zm6.219,7.7,3.69,4.57-3.363,1.928-3.5-4.34a13.5,13.5,0,0,1-5.633,1.131,12.61,12.61,0,0,1-6.5-1.632A10.812,10.812,0,0,1,355,442.6a15.092,15.092,0,0,1-1.479-6.836,14.55,14.55,0,0,1,1.53-6.785,11.065,11.065,0,0,1,4.336-4.591,12.851,12.851,0,0,1,6.581-1.632,12.609,12.609,0,0,1,6.5,1.632,10.963,10.963,0,0,1,4.285,4.591,14.852,14.852,0,0,1,1.507,6.836,14.526,14.526,0,0,1-1.533,6.785,11.226,11.226,0,0,1-2.16,2.935Zm127.5-29.1-4.9,1.122v6.173h-3.52l.051,3.722h3.469v13.825a7.55,7.55,0,0,0,2.117,5.739,8.053,8.053,0,0,0,5.79,2.013,8.429,8.429,0,0,0,2.219-.329,9.721,9.721,0,0,0,1.966-.742l-1.278-3.724a7.122,7.122,0,0,1-2.4.563,3.117,3.117,0,0,1-2.653-1.148,5.113,5.113,0,0,1-.865-3.14V427.445h6.02l-1.533-3.722h-4.487V416.43Zm-28.159,17.14a8.261,8.261,0,0,1,2.013-4.872,5.848,5.848,0,0,1,4.466-1.76q5.251,0,6.224,6.632Zm17.447,1.99a14.822,14.822,0,0,0-2.729-9.208q-2.729-3.6-8.086-3.6a11.874,11.874,0,0,0-6.3,1.632,10.687,10.687,0,0,0-4.107,4.591,15.422,15.422,0,0,0-1.428,6.785q0,5.968,3.469,9.488t9.948,3.518a17.306,17.306,0,0,0,8.98-2.7l-1.533-3.571a40.629,40.629,0,0,1-4.053,1.709,10.742,10.742,0,0,1-3.395.487q-3.979,0-5.992-2.092a9.049,9.049,0,0,1-2.323-5.713h17.551V435.56Zm-32.393-19.13-4.9,1.122v6.173h-3.52l.051,3.722h3.469v13.825a7.55,7.55,0,0,0,2.117,5.739,8.046,8.046,0,0,0,5.79,2.013,8.454,8.454,0,0,0,2.219-.329,9.746,9.746,0,0,0,1.964-.742l-1.275-3.724a7.123,7.123,0,0,1-2.4.563,3.112,3.112,0,0,1-2.653-1.148,5.1,5.1,0,0,1-.867-3.14V427.445h6.02l-1.53-3.722h-4.489V416.43Zm-18.469,15.355a20,20,0,0,1,4.387-3.137,9.563,9.563,0,0,1,4.387-1.3l-1.071-3.928a9.059,9.059,0,0,0-4.16,1.275,23.409,23.409,0,0,0-4.107,2.755l-1.581-4.03h-2.755V448.16h4.9V431.785Zm-26.321,9.233a4.325,4.325,0,0,1,1.224-3.112,4.448,4.448,0,0,1,3.367-1.277h6.02v5a10.854,10.854,0,0,1-3.01,2.372,7.342,7.342,0,0,1-3.469.893,3.989,3.989,0,0,1-3.061-1.148,3.863,3.863,0,0,1-1.071-2.729Zm-1.53-12.192a17.568,17.568,0,0,1,7.14-1.683q2.755,0,3.854,1.607a8.16,8.16,0,0,1,1.1,4.617h-5.867a10.134,10.134,0,0,0-6.6,2.013,6.866,6.866,0,0,0-2.474,5.637,7.471,7.471,0,0,0,2.191,5.635q2.194,2.12,6.428,2.117a9.7,9.7,0,0,0,3.877-.865,12.687,12.687,0,0,0,3.367-2.092l.612,2.347h3.416V431.375a7.782,7.782,0,0,0-1.3-4.336,9.013,9.013,0,0,0-3.6-3.137,11.252,11.252,0,0,0-5.1-1.148,19.818,19.818,0,0,0-4.411.638,12.174,12.174,0,0,0-4.007,1.556l1.377,3.879Zm-13.212,12.039a22.126,22.126,0,0,1-4.03,2.831,8.05,8.05,0,0,1-3.773,1.1,3.488,3.488,0,0,1-3.19-1.4,7.731,7.731,0,0,1-.893-4.109V423.421h-4.9v16.324a10.626,10.626,0,0,0,1.964,6.734q1.964,2.5,5.994,2.5a11.78,11.78,0,0,0,4.948-1.148,17.83,17.83,0,0,0,4.489-2.933l.865,3.265h3.418V423.421h-4.9v17.444Zm-77.54.153a4.325,4.325,0,0,1,1.224-3.112,4.449,4.449,0,0,1,3.367-1.277h6.02v5A10.853,10.853,0,0,1,329.49,444a7.341,7.341,0,0,1-3.469.893,3.99,3.99,0,0,1-3.061-1.148,3.864,3.864,0,0,1-1.071-2.729Zm-1.533-12.192a17.57,17.57,0,0,1,7.142-1.683q2.755,0,3.851,1.607a8.16,8.16,0,0,1,1.1,4.617H326.58a10.144,10.144,0,0,0-6.606,2.013,6.868,6.868,0,0,0-2.476,5.637,7.465,7.465,0,0,0,2.194,5.635q2.193,2.12,6.428,2.117A9.7,9.7,0,0,0,330,447.9a12.654,12.654,0,0,0,3.367-2.092l.612,2.347h3.418V431.375a7.767,7.767,0,0,0-1.3-4.336,9,9,0,0,0-3.6-3.137,11.246,11.246,0,0,0-5.1-1.148,19.833,19.833,0,0,0-4.413.638,12.16,12.16,0,0,0-4,1.556l1.379,3.879ZM304.491,422.6a6.873,6.873,0,0,1,5.816,2.525,10.73,10.73,0,0,1,1.939,6.708V448.16h-4.9V432.293a7.717,7.717,0,0,0-.893-4.079,3.244,3.244,0,0,0-2.984-1.428,7.389,7.389,0,0,0-3.367.995,20.239,20.239,0,0,0-3.775,2.627q.051.459.051,1.428V448.16h-4.9V432.293a7.717,7.717,0,0,0-.893-4.079,3.243,3.243,0,0,0-2.984-1.428,7.4,7.4,0,0,0-3.545,1.1,23.5,23.5,0,0,0-3.954,2.831V448.16h-4.9V423.419h3.418l.867,3.265a17.063,17.063,0,0,1,4.413-2.933,11.218,11.218,0,0,1,4.719-1.148,7.675,7.675,0,0,1,4.158,1.071,6.671,6.671,0,0,1,2.576,3.01,17.062,17.062,0,0,1,4.413-2.933,11.225,11.225,0,0,1,4.719-1.148Zm-40.555-6.173-4.9,1.122v6.173h-3.52l.051,3.722h3.469v13.825a7.55,7.55,0,0,0,2.117,5.739,8.053,8.053,0,0,0,5.79,2.013,8.441,8.441,0,0,0,2.219-.329,9.745,9.745,0,0,0,1.964-.742l-1.275-3.724a7.111,7.111,0,0,1-2.4.563,3.117,3.117,0,0,1-2.653-1.148,5.113,5.113,0,0,1-.867-3.14V427.445h6.02l-1.53-3.722h-4.489V416.43Zm-17.549-4.336a2.107,2.107,0,0,1-.536,1.377,1.531,1.531,0,0,1-1.148.51,2.657,2.657,0,0,1-1.148-.23q-.485-.23-1.25-.689a11.494,11.494,0,0,0-1.556-.867,4.357,4.357,0,0,0-1.76-.306,4.923,4.923,0,0,0-3.52,1.25,5.44,5.44,0,0,0-1.326,4.107h3.316a2.067,2.067,0,0,1,.587-1.326,1.578,1.578,0,0,1,1.148-.561,2.833,2.833,0,0,1,1.173.23,6.132,6.132,0,0,1,1.173.74,12.67,12.67,0,0,0,1.53.867,4.026,4.026,0,0,0,1.683.306,4.886,4.886,0,0,0,3.494-1.275,5.466,5.466,0,0,0,1.352-4.132Zm-10,28.925a4.325,4.325,0,0,1,1.224-3.112,4.449,4.449,0,0,1,3.367-1.277H247v5a10.855,10.855,0,0,1-3.01,2.372,7.342,7.342,0,0,1-3.469.893,3.99,3.99,0,0,1-3.061-1.148,3.864,3.864,0,0,1-1.071-2.729Zm-1.53-12.192A17.569,17.569,0,0,1,242,427.143q2.755,0,3.852,1.607a8.16,8.16,0,0,1,1.1,4.617h-5.867a10.144,10.144,0,0,0-6.606,2.013A6.868,6.868,0,0,0,232,441.016a7.465,7.465,0,0,0,2.194,5.635q2.193,2.12,6.428,2.117a9.7,9.7,0,0,0,3.877-.865,12.652,12.652,0,0,0,3.367-2.092l.612,2.347h3.418V431.375a7.767,7.767,0,0,0-1.3-4.336A9,9,0,0,0,247,423.9a11.246,11.246,0,0,0-5.1-1.148,19.833,19.833,0,0,0-4.413.638,12.161,12.161,0,0,0-4,1.556l1.379,3.879Z" transform="translate(0)"/></g></svg>