<?xml version="1.0" encoding="utf-8"?>
<!-- Generator: Adobe Illustrator 23.0.1, SVG Export Plug-In . SVG Version: 6.00 Build 0)  -->
<svg version="1.1" id="Layer_1" xmlns="http://www.w3.org/2000/svg" xmlns:xlink="http://www.w3.org/1999/xlink" x="0px" y="0px"
	 viewBox="0 0 165.5 34.9" style="enable-background:new 0 0 165.5 34.9;" xml:space="preserve">
<style type="text/css">
	.st0{fill:#FEFEFE;}
</style>
<g>
	<path class="st0" d="M81.2,20.6l1.5,1.8c0.5-0.8,0.8-1.7,0.8-2.8c0-1.2-0.3-2.3-0.9-3c-0.6-0.8-1.4-1.2-2.5-1.2
		c-1.1,0-1.9,0.4-2.5,1.2c-0.6,0.8-1,1.8-1,3c0,1.2,0.3,2.3,0.9,3s1.4,1.2,2.5,1.2c0.5,0,0.9-0.1,1.3-0.2l-1.5-1.8L81.2,20.6
		L81.2,20.6z M84.2,24.2l1.7,2.1l-1.6,0.9l-1.6-2c-0.8,0.4-1.7,0.5-2.6,0.5c-1.2,0-2.2-0.3-3.1-0.8c-0.9-0.5-1.5-1.2-2-2.2
		c-0.5-0.9-0.7-2-0.7-3.2c0-1.2,0.2-2.3,0.7-3.2c0.5-0.9,1.2-1.6,2-2.2s1.9-0.8,3.1-0.8c1.2,0,2.2,0.3,3.1,0.8s1.5,1.2,2,2.2
		c0.5,0.9,0.7,2,0.7,3.2c0,1.2-0.2,2.3-0.7,3.2C84.9,23.4,84.6,23.9,84.2,24.2L84.2,24.2z M144.1,10.6l-2.3,0.5V14h-1.7l0,1.8h1.6
		v6.5c0,1.2,0.3,2.1,1,2.7c0.7,0.6,1.6,0.9,2.7,0.9c0.3,0,0.7-0.1,1-0.2c0.4-0.1,0.7-0.2,0.9-0.3l-0.6-1.8c-0.5,0.2-0.8,0.3-1.1,0.3
		c-0.6,0-1-0.2-1.2-0.5c-0.3-0.4-0.4-0.9-0.4-1.5v-6.1h2.8l-0.7-1.8h-2.1L144.1,10.6L144.1,10.6z M130.9,18.6c0.1-1,0.4-1.7,0.9-2.3
		c0.5-0.6,1.2-0.8,2.1-0.8c1.6,0,2.6,1,2.9,3.1H130.9L130.9,18.6z M139.1,19.6c0-1.8-0.4-3.2-1.3-4.3c-0.9-1.1-2.1-1.7-3.8-1.7
		c-1.1,0-2.1,0.3-3,0.8c-0.8,0.5-1.5,1.2-1.9,2.2c-0.4,0.9-0.7,2-0.7,3.2c0,1.9,0.5,3.4,1.6,4.5c1.1,1.1,2.6,1.7,4.7,1.7
		c1.4,0,2.8-0.4,4.2-1.3l-0.7-1.7c-0.8,0.4-1.5,0.7-1.9,0.8c-0.5,0.2-1,0.2-1.6,0.2c-1.2,0-2.2-0.3-2.8-1c-0.6-0.7-1-1.6-1.1-2.7
		h8.3V19.6L139.1,19.6z M123.9,10.6l-2.3,0.5V14h-1.7l0,1.8h1.6v6.5c0,1.2,0.3,2.1,1,2.7c0.7,0.6,1.6,0.9,2.7,0.9
		c0.3,0,0.7-0.1,1-0.2s0.7-0.2,0.9-0.3l-0.6-1.8c-0.5,0.2-0.8,0.3-1.1,0.3c-0.6,0-1-0.2-1.2-0.5c-0.3-0.4-0.4-0.9-0.4-1.5v-6.1h2.8
		L126,14h-2.1L123.9,10.6L123.9,10.6z M115.2,17.8c0.6-0.6,1.3-1.1,2.1-1.5c0.8-0.4,1.5-0.6,2.1-0.6l-0.5-1.8c-0.6,0-1.2,0.2-2,0.6
		c-0.7,0.4-1.4,0.8-1.9,1.3l-0.7-1.9h-1.3v11.6h2.3L115.2,17.8L115.2,17.8z M102.8,22.1c0-0.6,0.2-1.1,0.6-1.5s0.9-0.6,1.6-0.6h2.8
		v2.4c-0.4,0.5-0.9,0.8-1.4,1.1c-0.5,0.3-1.1,0.4-1.6,0.4c-0.6,0-1.1-0.2-1.4-0.5S102.8,22.6,102.8,22.1L102.8,22.1z M102.1,16.4
		c1.2-0.5,2.3-0.8,3.4-0.8c0.9,0,1.5,0.3,1.8,0.8c0.3,0.5,0.5,1.2,0.5,2.2H105c-1.3,0-2.3,0.3-3.1,0.9c-0.8,0.6-1.2,1.5-1.2,2.7
		c0,1.1,0.3,2,1,2.6c0.7,0.7,1.7,1,3,1c0.6,0,1.2-0.1,1.8-0.4c0.6-0.3,1.2-0.6,1.6-1l0.3,1.1h1.6v-7.9c0-0.7-0.2-1.4-0.6-2
		c-0.4-0.6-1-1.1-1.7-1.5c-0.7-0.4-1.5-0.5-2.4-0.5c-0.5,0-1.2,0.1-2.1,0.3c-0.8,0.2-1.5,0.4-1.9,0.7L102.1,16.4L102.1,16.4z
		 M95.9,22c-0.6,0.5-1.3,1-1.9,1.3c-0.6,0.3-1.2,0.5-1.8,0.5c-0.7,0-1.2-0.2-1.5-0.7c-0.3-0.4-0.4-1.1-0.4-1.9v-7.5H88v7.7
		c0,1.3,0.3,2.4,0.9,3.2c0.6,0.8,1.6,1.2,2.8,1.2c0.8,0,1.5-0.2,2.3-0.5s1.5-0.8,2.1-1.4l0.4,1.5h1.6V13.8h-2.3L95.9,22L95.9,22z
		 M59.4,22.1c0-0.6,0.2-1.1,0.6-1.5c0.4-0.4,0.9-0.6,1.6-0.6h2.8v2.4c-0.4,0.5-0.9,0.8-1.4,1.1c-0.5,0.3-1.1,0.4-1.6,0.4
		c-0.6,0-1.1-0.2-1.4-0.5S59.4,22.6,59.4,22.1L59.4,22.1z M58.7,16.4c1.2-0.5,2.3-0.8,3.4-0.8c0.9,0,1.5,0.3,1.8,0.8
		c0.3,0.5,0.5,1.2,0.5,2.2h-2.8c-1.3,0-2.3,0.3-3.1,0.9c-0.8,0.6-1.2,1.5-1.2,2.7c0,1.1,0.3,2,1,2.6s1.7,1,3,1
		c0.6,0,1.2-0.1,1.8-0.4c0.6-0.3,1.2-0.6,1.6-1l0.3,1.1h1.6v-7.9c0-0.7-0.2-1.4-0.6-2c-0.4-0.6-1-1.1-1.7-1.5
		c-0.7-0.4-1.5-0.5-2.4-0.5c-0.5,0-1.2,0.1-2.1,0.3c-0.8,0.2-1.5,0.4-1.9,0.7L58.7,16.4L58.7,16.4z M51.2,13.5
		c1.2,0,2.1,0.4,2.7,1.2s0.9,1.8,0.9,3.2v7.7h-2.3V18c0-0.8-0.1-1.5-0.4-1.9c-0.3-0.4-0.7-0.7-1.4-0.7c-0.5,0-1,0.2-1.6,0.5
		c-0.6,0.3-1.2,0.7-1.8,1.2c0,0.1,0,0.4,0,0.7v7.7h-2.3V18c0-0.8-0.1-1.5-0.4-1.9c-0.3-0.4-0.7-0.7-1.4-0.7c-0.5,0-1.1,0.2-1.7,0.5
		c-0.6,0.3-1.2,0.8-1.9,1.3v8.2h-2.3V13.8H39l0.4,1.5c0.6-0.6,1.3-1,2.1-1.4c0.8-0.4,1.5-0.5,2.2-0.5c0.8,0,1.4,0.2,2,0.5
		c0.5,0.3,0.9,0.8,1.2,1.4c0.6-0.6,1.3-1,2.1-1.4C49.7,13.6,50.5,13.5,51.2,13.5L51.2,13.5z M32.1,10.6l-2.3,0.5V14h-1.7l0,1.8h1.6
		v6.5c0,1.2,0.3,2.1,1,2.7c0.7,0.6,1.6,0.9,2.7,0.9c0.3,0,0.7-0.1,1-0.2s0.7-0.2,0.9-0.3l-0.6-1.8c-0.5,0.2-0.8,0.3-1.1,0.3
		c-0.6,0-1-0.2-1.2-0.5c-0.3-0.4-0.4-0.9-0.4-1.5v-6.1h2.8L34.2,14h-2.1L32.1,10.6L32.1,10.6z M23.9,8.5c0,0.3-0.1,0.5-0.3,0.6
		s-0.3,0.2-0.5,0.2s-0.4,0-0.5-0.1S22.2,9.1,21.9,9c-0.3-0.2-0.5-0.3-0.7-0.4c-0.2-0.1-0.5-0.1-0.8-0.1c-0.7,0-1.2,0.2-1.7,0.6
		s-0.6,1-0.6,1.9h1.6c0-0.2,0.1-0.4,0.3-0.6s0.3-0.3,0.5-0.3c0.2,0,0.4,0,0.6,0.1s0.3,0.2,0.6,0.3c0.3,0.2,0.5,0.3,0.7,0.4
		c0.2,0.1,0.5,0.1,0.8,0.1c0.7,0,1.2-0.2,1.6-0.6s0.6-1,0.6-1.9H23.9L23.9,8.5z M19.2,22.1c0-0.6,0.2-1.1,0.6-1.5
		c0.4-0.4,0.9-0.6,1.6-0.6h2.8v2.4c-0.4,0.5-0.9,0.8-1.4,1.1c-0.5,0.3-1.1,0.4-1.6,0.4c-0.6,0-1.1-0.2-1.4-0.5
		C19.3,23,19.2,22.6,19.2,22.1L19.2,22.1z M18.4,16.4c1.2-0.5,2.3-0.8,3.4-0.8c0.9,0,1.5,0.3,1.8,0.8c0.3,0.5,0.5,1.2,0.5,2.2h-2.8
		c-1.3,0-2.3,0.3-3.1,0.9c-0.8,0.6-1.2,1.5-1.2,2.7c0,1.1,0.3,2,1,2.6s1.7,1,3,1c0.6,0,1.2-0.1,1.8-0.4c0.6-0.3,1.2-0.6,1.6-1
		l0.3,1.1h1.6v-7.9c0-0.7-0.2-1.4-0.6-2c-0.4-0.6-1-1.1-1.7-1.5c-0.7-0.4-1.5-0.5-2.4-0.5c-0.5,0-1.2,0.1-2.1,0.3
		c-0.8,0.2-1.5,0.4-1.9,0.7L18.4,16.4L18.4,16.4z"/>
</g>
</svg>
