<?xml version="1.0" encoding="UTF-8" standalone="no"?><!DOCTYPE svg PUBLIC "-//W3C//DTD SVG 1.1//EN" "http://www.w3.org/Graphics/SVG/1.1/DTD/svg11.dtd"><svg width="100%" height="100%" viewBox="0 0 324 61" version="1.1" xmlns="http://www.w3.org/2000/svg" xmlns:xlink="http://www.w3.org/1999/xlink" xml:space="preserve" xmlns:serif="http://www.serif.com/" style="fill-rule:evenodd;clip-rule:evenodd;stroke-linejoin:round;stroke-miterlimit:2;"><rect id="Artboard1" x="0" y="0" width="323.543" height="60.428" style="fill:none;"/><clipPath id="_clip1"><rect x="0" y="0" width="323.543" height="60.428"/></clipPath><g clip-path="url(#_clip1)"><path d="M323.543,15.107c-0,-8.338 -6.769,-15.107 -15.107,-15.107l-293.329,0c-8.338,0 -15.107,6.769 -15.107,15.107l0,30.214c0,8.338 6.769,15.107 15.107,15.107l293.329,-0c8.338,-0 15.107,-6.769 15.107,-15.107l-0,-30.214Z" style="fill:#f7f7f7;fill-opacity:0.5;"/><g><path d="M158.946,34.944l3.15,3.9c1.182,-1.725 1.797,-3.778 1.758,-5.869c0.106,-2.308 -0.578,-4.586 -1.939,-6.453c-1.278,-1.642 -3.277,-2.566 -5.356,-2.474c-2.089,-0.072 -4.09,0.858 -5.382,2.5c-1.387,1.793 -2.116,4.009 -2.066,6.275c-0.107,2.308 0.578,4.586 1.939,6.453c1.278,1.642 3.277,2.565 5.356,2.474c0.93,0.012 1.854,-0.155 2.721,-0.491l-3.156,-3.911l2.976,-2.4l-0.001,-0.004Zm6.219,7.7l3.69,4.57l-3.363,1.928l-3.5,-4.34c-1.775,0.777 -3.696,1.163 -5.633,1.131c-2.274,0.052 -4.521,-0.512 -6.5,-1.632c-1.843,-1.076 -3.326,-2.674 -4.262,-4.591c-1.022,-2.131 -1.528,-4.473 -1.479,-6.836c-0.046,-2.352 0.479,-4.68 1.53,-6.785c0.968,-1.919 2.475,-3.514 4.336,-4.591c2.008,-1.123 4.281,-1.687 6.581,-1.632c2.274,-0.052 4.52,0.512 6.5,1.632c1.845,1.08 3.335,2.676 4.285,4.591c1.039,2.126 1.556,4.47 1.507,6.836c0.046,2.352 -0.48,4.681 -1.533,6.785c-0.556,1.089 -1.285,2.081 -2.16,2.935l0.001,-0.001Zm127.5,-29.1l-4.9,1.122l-0,6.173l-3.52,-0l0.051,3.722l3.469,-0l-0,13.825c-0.136,2.125 0.634,4.211 2.117,5.739c1.588,1.408 3.671,2.131 5.79,2.013c0.751,-0.01 1.497,-0.121 2.219,-0.329c0.68,-0.176 1.339,-0.424 1.966,-0.742l-1.278,-3.724c-0.761,0.326 -1.574,0.516 -2.4,0.563c-1.018,0.075 -2.011,-0.354 -2.653,-1.148c-0.623,-0.924 -0.927,-2.027 -0.865,-3.14l-0,-13.063l6.02,-0l-1.533,-3.722l-4.487,0l-0,-7.293l0.004,0.004Zm-28.159,17.14c0.121,-1.8 0.828,-3.512 2.013,-4.872c1.167,-1.198 2.795,-1.839 4.466,-1.76c3.5,-0 5.575,2.211 6.224,6.632l-12.703,-0Zm17.447,1.99c0.137,-3.287 -0.823,-6.527 -2.729,-9.208c-1.82,-2.4 -4.515,-3.6 -8.086,-3.6c-2.211,-0.053 -4.393,0.512 -6.3,1.632c-1.79,1.094 -3.219,2.691 -4.107,4.591c-0.985,2.124 -1.473,4.444 -1.428,6.785c-0,3.979 1.156,7.141 3.469,9.488c2.312,2.347 5.628,3.519 9.948,3.518c3.184,-0.056 6.292,-0.991 8.98,-2.7l-1.533,-3.571c-1.319,0.642 -2.672,1.213 -4.053,1.709c-1.099,0.343 -2.245,0.508 -3.395,0.487c-2.653,-0 -4.65,-0.697 -5.992,-2.092c-1.419,-1.573 -2.242,-3.596 -2.323,-5.713l17.551,-0l-0,-1.33l-0.002,0.004Zm-32.393,-19.13l-4.9,1.122l-0,6.173l-3.52,-0l0.051,3.722l3.469,-0l-0,13.825c-0.136,2.125 0.634,4.211 2.117,5.739c1.588,1.408 3.671,2.132 5.79,2.013c0.751,-0.011 1.497,-0.121 2.219,-0.329c0.679,-0.176 1.338,-0.425 1.964,-0.742l-1.275,-3.724c-0.761,0.326 -1.574,0.516 -2.4,0.563c-1.019,0.076 -2.012,-0.354 -2.653,-1.148c-0.625,-0.924 -0.929,-2.027 -0.867,-3.14l-0,-13.063l6.02,-0l-1.53,-3.722l-4.489,0l-0,-7.293l0.004,0.004Zm-18.469,15.355c1.314,-1.239 2.789,-2.294 4.387,-3.137c1.335,-0.782 2.841,-1.228 4.387,-1.3l-1.071,-3.928c-1.47,0.081 -2.898,0.518 -4.16,1.275c-1.463,0.771 -2.839,1.694 -4.107,2.755l-1.581,-4.03l-2.755,-0l-0,24.736l4.9,0l-0,-16.375l-0,0.004Zm-26.321,9.233c-0.026,-1.159 0.415,-2.281 1.224,-3.112c0.891,-0.881 2.115,-1.345 3.367,-1.277l6.02,-0l-0,5c-0.855,0.963 -1.874,1.766 -3.01,2.372c-1.065,0.579 -2.257,0.886 -3.469,0.893c-1.137,0.072 -2.252,-0.346 -3.061,-1.148c-0.702,-0.733 -1.087,-1.714 -1.071,-2.729l-0,0.001Zm-1.53,-12.192c2.235,-1.057 4.668,-1.631 7.14,-1.683c1.836,0 3.121,0.536 3.854,1.607c0.816,1.396 1.199,3.003 1.1,4.617l-5.867,0c-2.367,-0.122 -4.704,0.591 -6.6,2.013c-1.667,1.382 -2.585,3.475 -2.474,5.637c-0.096,2.102 0.7,4.15 2.191,5.635c1.462,1.413 3.605,2.119 6.428,2.117c1.338,-0.018 2.658,-0.312 3.877,-0.865c1.225,-0.517 2.361,-1.223 3.367,-2.092l0.612,2.347l3.416,0l-0,-16.788c0.006,-1.542 -0.447,-3.052 -1.3,-4.336c-0.896,-1.35 -2.14,-2.434 -3.6,-3.137c-1.587,-0.778 -3.334,-1.171 -5.1,-1.148c-1.49,0.046 -2.97,0.26 -4.411,0.638c-1.418,0.277 -2.774,0.804 -4.007,1.556l1.377,3.879l-0.003,0.003Zm-13.212,12.039c-1.234,1.091 -2.586,2.04 -4.03,2.831c-1.148,0.673 -2.444,1.051 -3.773,1.1c-1.236,0.136 -2.454,-0.399 -3.19,-1.4c-0.672,-1.261 -0.981,-2.683 -0.893,-4.109l-0,-15.87l-4.9,-0l-0,16.324c-0.127,2.402 0.566,4.777 1.964,6.734c1.309,1.667 3.307,2.5 5.994,2.5c1.713,-0.018 3.402,-0.41 4.948,-1.148c1.635,-0.746 3.149,-1.735 4.489,-2.933l0.865,3.265l3.418,-0l-0,-24.742l-4.9,-0l-0,17.444l0.008,0.004Zm-77.54,0.153c-0.026,-1.159 0.415,-2.281 1.224,-3.112c0.892,-0.881 2.115,-1.345 3.367,-1.277l6.02,-0l-0,5c-0.856,0.961 -1.876,1.763 -3.012,2.367c-1.065,0.58 -2.257,0.886 -3.469,0.893c-1.137,0.072 -2.252,-0.346 -3.061,-1.148c-0.702,-0.733 -1.087,-1.714 -1.071,-2.729l0.002,0.006Zm-1.533,-12.192c2.235,-1.057 4.669,-1.631 7.142,-1.683c1.836,0 3.12,0.536 3.851,1.607c0.816,1.396 1.199,3.003 1.1,4.617l-5.871,0c-2.369,-0.122 -4.708,0.59 -6.606,2.013c-1.667,1.382 -2.586,3.474 -2.476,5.637c-0.096,2.103 0.701,4.151 2.194,5.635c1.462,1.413 3.604,2.119 6.428,2.117c1.339,-0.02 2.661,-0.317 3.88,-0.873c1.225,-0.516 2.361,-1.222 3.367,-2.092l0.612,2.347l3.418,-0l-0,-16.78c0.007,-1.542 -0.446,-3.052 -1.3,-4.336c-0.896,-1.351 -2.14,-2.435 -3.6,-3.137c-1.586,-0.778 -3.334,-1.171 -5.1,-1.148c-1.491,0.046 -2.971,0.26 -4.413,0.638c-1.415,0.277 -2.77,0.804 -4,1.556l1.379,3.879l-0.005,0.003Zm-15.867,-6.23c2.232,-0.156 4.406,0.787 5.816,2.525c1.376,1.957 2.058,4.319 1.939,6.708l-0,16.327l-4.9,0l-0,-15.867c0.083,-1.416 -0.226,-2.827 -0.893,-4.079c-0.658,-0.984 -1.805,-1.533 -2.984,-1.428c-1.186,0.056 -2.341,0.398 -3.367,0.995c-1.354,0.729 -2.621,1.611 -3.775,2.627c0.034,0.306 0.051,0.782 0.051,1.428l-0,16.324l-4.9,0l-0,-15.867c0.083,-1.416 -0.226,-2.827 -0.893,-4.079c-0.658,-0.984 -1.805,-1.533 -2.984,-1.428c-1.256,0.06 -2.476,0.438 -3.545,1.1c-1.413,0.804 -2.738,1.753 -3.954,2.831l-0,17.443l-4.9,0l-0,-24.741l3.418,-0l0.867,3.265c1.309,-1.201 2.798,-2.191 4.413,-2.933c1.47,-0.723 3.081,-1.115 4.719,-1.148c1.459,-0.046 2.902,0.326 4.158,1.071c1.143,0.719 2.042,1.769 2.576,3.01c1.309,-1.202 2.798,-2.191 4.413,-2.933c1.47,-0.722 3.081,-1.114 4.719,-1.148l0.006,-0.003Zm-40.555,-6.173l-4.9,1.122l-0,6.173l-3.52,0l0.051,3.722l3.469,0l-0,13.825c-0.136,2.125 0.634,4.211 2.117,5.739c1.588,1.408 3.671,2.131 5.79,2.013c0.751,-0.01 1.497,-0.121 2.219,-0.329c0.679,-0.176 1.338,-0.425 1.964,-0.742l-1.275,-3.724c-0.761,0.326 -1.574,0.516 -2.4,0.563c-1.018,0.075 -2.011,-0.354 -2.653,-1.148c-0.624,-0.924 -0.928,-2.027 -0.867,-3.14l-0,-13.056l6.02,-0l-1.53,-3.722l-4.489,0l-0,-7.293l0.004,-0.003Zm-17.549,-4.336c-0.007,0.509 -0.197,0.998 -0.536,1.377c-0.292,0.326 -0.71,0.512 -1.148,0.51c-0.395,0.01 -0.787,-0.069 -1.148,-0.23c-0.324,-0.153 -0.74,-0.383 -1.25,-0.689c-0.496,-0.329 -1.016,-0.619 -1.556,-0.867c-0.559,-0.222 -1.159,-0.327 -1.76,-0.306c-1.292,-0.062 -2.557,0.387 -3.52,1.25c-0.989,1.127 -1.469,2.614 -1.326,4.107l3.316,-0c0.029,-0.498 0.237,-0.969 0.587,-1.326c0.286,-0.34 0.703,-0.544 1.148,-0.561c0.403,-0.008 0.803,0.071 1.173,0.23c0.417,0.202 0.811,0.45 1.173,0.74c0.489,0.324 1,0.614 1.53,0.867c0.532,0.221 1.106,0.326 1.683,0.306c1.286,0.052 2.543,-0.406 3.494,-1.275c1.002,-1.131 1.492,-2.628 1.352,-4.132l-3.212,-0.001Zm-10,28.925c-0.026,-1.159 0.415,-2.281 1.224,-3.112c0.892,-0.881 2.115,-1.345 3.367,-1.277l6.022,0l-0,5c-0.855,0.963 -1.874,1.766 -3.01,2.372c-1.065,0.579 -2.257,0.886 -3.469,0.893c-1.137,0.072 -2.252,-0.346 -3.061,-1.148c-0.702,-0.733 -1.087,-1.714 -1.071,-2.729l-0.002,0.001Zm-1.53,-12.192c2.236,-1.057 4.67,-1.63 7.143,-1.681c1.836,-0 3.12,0.536 3.852,1.607c0.816,1.396 1.199,3.003 1.1,4.617l-5.867,0c-2.369,-0.122 -4.708,0.59 -6.606,2.013c-1.668,1.381 -2.588,3.473 -2.479,5.636c-0.096,2.103 0.701,4.151 2.194,5.635c1.462,1.413 3.604,2.119 6.428,2.117c1.338,-0.018 2.658,-0.312 3.877,-0.865c1.225,-0.516 2.361,-1.222 3.367,-2.092l0.612,2.347l3.418,0l-0,-16.783c0.007,-1.542 -0.446,-3.052 -1.3,-4.336c-0.894,-1.351 -2.137,-2.435 -3.596,-3.139c-1.586,-0.778 -3.334,-1.171 -5.1,-1.148c-1.491,0.046 -2.971,0.26 -4.413,0.638c-1.415,0.277 -2.77,0.804 -4,1.556l1.379,3.879l-0.009,-0.001Z" style="fill-rule:nonzero;"/></g></g></svg>